<svg width="20" height="20" viewBox="0 0 20 20" fill="none" xmlns="http://www.w3.org/2000/svg">
<g clip-path="url(#clip0_26_868)">
<path d="M18.8958 0H1.11111C0.497222 0 0 0.497222 0 1.11111V18.9028C0.00694444 19.5111 0.502778 20 1.11111 20H10.6944V12.2653H8.08611V9.23889H10.6833V7.01667C10.6833 4.43333 12.2611 3.02639 14.5722 3.02639C15.35 3.02361 16.1278 3.0625 16.9014 3.14583V5.84028H15.3C14.05 5.84028 13.8083 6.43611 13.8083 7.30972V9.23889H16.8056L16.4167 12.2653H13.8083V20H18.8958C19.5042 19.9958 19.9958 19.5042 20 18.8958V1.11111C20 0.5 19.5069 0.00416667 18.8958 0Z" fill="#DDB8FC"/>
</g>
<defs>
<clipPath id="clip0_26_868">
<rect width="20" height="20" fill="white"/>
</clipPath>
</defs>
</svg>
