<svg width="20" height="20" viewBox="0 0 20 20" fill="none" xmlns="http://www.w3.org/2000/svg">
<g clip-path="url(#clip0_24_857)">
<path d="M9.99991 1.80176C12.6702 1.80176 12.9862 1.81208 14.0409 1.86011C15.0158 1.90457 15.5453 2.06732 15.8978 2.20427C16.3646 2.38568 16.6977 2.60241 17.0478 2.95213C17.3979 3.30224 17.6146 3.63528 17.7956 4.1021C17.9326 4.45459 18.0953 4.98412 18.1398 5.95903C18.1878 7.01334 18.1981 7.32971 18.1981 10C18.1981 12.6703 18.1878 12.9863 18.1398 14.041C18.0953 15.0159 17.9326 15.5454 17.7956 15.8979C17.6142 16.3647 17.3975 16.6978 17.0478 17.0479C16.6977 17.398 16.3646 17.6147 15.8978 17.7957C15.5453 17.9327 15.0158 18.0954 14.0409 18.1399C12.9866 18.1879 12.6702 18.1982 9.99991 18.1982C7.32962 18.1982 7.01325 18.1879 5.95894 18.1399C4.98403 18.0954 4.4545 17.9327 4.102 17.7957C3.63519 17.6143 3.30215 17.3976 2.95204 17.0479C2.60193 16.6978 2.38519 16.3647 2.20418 15.8979C2.06723 15.5454 1.90448 15.0159 1.86002 14.041C1.81199 12.9867 1.80167 12.6703 1.80167 10C1.80167 7.32971 1.81199 7.01373 1.86002 5.95903C1.90448 4.98412 2.06723 4.45459 2.20418 4.1021C2.38559 3.63528 2.60232 3.30224 2.95204 2.95213C3.30175 2.60202 3.63519 2.38528 4.102 2.20427C4.4545 2.06732 4.98403 1.90457 5.95894 1.86011C7.01325 1.81208 7.32962 1.80176 9.99991 1.80176ZM9.99991 0C7.28397 0 6.94338 0.0115116 5.87677 0.0603366C4.81255 0.108765 4.08533 0.277866 3.44942 0.525167C2.79167 0.780803 2.23395 1.12258 1.67822 1.67871C1.12209 2.23484 0.780315 2.79216 0.524678 3.44991C0.277378 4.08582 0.108276 4.81304 0.0598483 5.87726C0.0110233 6.94387 -0.000488281 7.28446 -0.000488281 10.0004C-0.000488281 12.7163 0.0110233 13.0569 0.0598483 14.1235C0.108276 15.1878 0.277378 15.915 0.524678 16.5509C0.780315 17.2086 1.12209 17.7664 1.67822 18.3221C2.23435 18.8782 2.79167 19.22 3.44942 19.4756C4.08533 19.7229 4.81255 19.892 5.87677 19.9405C6.94338 19.9893 7.28397 20.0008 9.99991 20.0008C12.7159 20.0008 13.0564 19.9893 14.123 19.9405C15.1873 19.892 15.9145 19.7229 16.5504 19.4756C17.2082 19.22 17.7659 18.8782 18.3216 18.3221C18.8777 17.766 19.2195 17.2086 19.4751 16.5509C19.7224 15.915 19.8915 15.1878 19.94 14.1235C19.9888 13.0569 20.0003 12.7163 20.0003 10.0004C20.0003 7.28446 19.9888 6.94387 19.94 5.87726C19.8915 4.81304 19.7224 4.08582 19.4751 3.44991C19.2195 2.79216 18.8777 2.23444 18.3216 1.67871C17.7655 1.12258 17.2082 0.780803 16.5504 0.525167C15.9145 0.277866 15.1873 0.108765 14.123 0.0603366C13.0564 0.0115116 12.7159 0 9.99991 0Z" fill="#DDB8FC"/>
<path d="M9.99995 4.86504C7.16374 4.86504 4.86499 7.16418 4.86499 10C4.86499 12.8358 7.16413 15.135 9.99995 15.135C12.8358 15.135 15.1349 12.8358 15.1349 10C15.1349 7.16418 12.8358 4.86504 9.99995 4.86504ZM9.99995 13.3332C8.15889 13.3332 6.66675 11.8407 6.66675 10C6.66675 8.15934 8.15929 6.6668 9.99995 6.6668C11.8406 6.6668 13.3332 8.15934 13.3332 10C13.3332 11.8407 11.8406 13.3332 9.99995 13.3332Z" fill="#DDB8FC"/>
<path d="M15.3382 5.86178C16.0009 5.86178 16.5382 5.32452 16.5382 4.66179C16.5382 3.99906 16.0009 3.46181 15.3382 3.46181C14.6754 3.46181 14.1382 3.99906 14.1382 4.66179C14.1382 5.32452 14.6754 5.86178 15.3382 5.86178Z" fill="#DDB8FC"/>
</g>
<defs>
<clipPath id="clip0_24_857">
<rect width="20" height="20" fill="white"/>
</clipPath>
</defs>
</svg>
