<?xml version="1.0" encoding="UTF-8"?>
<svg id="Layer_1" data-name="Layer 1" xmlns="http://www.w3.org/2000/svg" viewBox="0 0 451.14 451.14">
  <defs>
    <style>
      .cls-1 {
        fill: #1fff96;
      }
    </style>
  </defs>
  <path class="cls-1" d="M246.57.96h-.05c-6.9-.64-13.89-.96-20.95-.96-6.39,0-12.72.27-18.97.79h-.03C90.88,10.44,0,107.39,0,225.57s90.88,215.13,206.57,224.78c6.26.52,12.6.79,19,.79,7.08,0,14.09-.33,21-.96,114.73-10.6,204.57-107.11,204.57-224.61S361.3,11.56,246.57.96ZM206.57,410.61c-93.79-9.51-167-88.73-167-185.04S112.78,50.04,206.57,40.53v370.08ZM246.57,410.4V40.74c92.83,10.43,165,89.21,165,184.83s-72.17,174.4-165,184.83h0Z"/>
</svg>