<svg width="20" height="20" viewBox="0 0 20 20" fill="none" xmlns="http://www.w3.org/2000/svg">
<g clip-path="url(#clip0_24_858)">
<path d="M9.99973 0.000533476V0C4.47734 0 0 4.47719 0 10C0 15.5228 4.47734 20 10 20C15.5227 20 20 15.5231 20 10C20 4.47693 15.5232 0.000533476 9.99973 0.000533476ZM14.5859 14.423C14.4067 14.7167 14.0234 14.8095 13.7297 14.6303C13.7294 14.6303 13.7289 14.6298 13.7286 14.6298C11.3809 13.1955 8.42496 12.8709 4.94412 13.666C4.60857 13.7423 4.27463 13.5324 4.19781 13.1969C4.12099 12.8618 4.33011 12.5279 4.66512 12.4508C4.66565 12.4508 4.66592 12.4508 4.66645 12.4505C8.47563 11.5802 11.7431 11.9549 14.3789 13.5658C14.6726 13.7461 14.7659 14.1294 14.5854 14.423H14.5859ZM15.8097 11.7002C15.584 12.067 15.1039 12.1827 14.7374 11.9571C12.0496 10.3049 7.95204 9.82635 4.77261 10.7914C4.36025 10.916 3.92467 10.6837 3.79958 10.2721C3.67528 9.85996 3.90787 9.42518 4.31944 9.29955C7.95097 8.19765 12.4659 8.7314 15.5528 10.6282C15.9193 10.8538 16.0353 11.334 15.8097 11.6999V11.7002ZM17.1967 8.53748C16.9339 8.98186 16.3583 9.12857 15.9153 8.8645H15.9148C12.6918 6.95012 7.3743 6.77407 4.2973 7.70819C3.80305 7.8581 3.28052 7.57909 3.13088 7.08509C2.98098 6.59082 3.25998 6.06829 3.75423 5.91838C7.28655 4.84609 13.1586 5.05335 16.8691 7.25607C17.3132 7.51881 17.4602 8.09176 17.1975 8.53561C17.1972 8.53641 17.1967 8.53694 17.1964 8.53774L17.1967 8.53748Z" fill="#DDB8FC"/>
</g>
<defs>
<clipPath id="clip0_24_858">
<rect width="20" height="20" fill="white"/>
</clipPath>
</defs>
</svg>
